<?xml version="1.0" standalone="no"?>
<!DOCTYPE svg PUBLIC "-//W3C//DTD SVG 1.1//EN" "http://www.w3.org/Graphics/SVG/1.1/DTD/svg11.dtd">
<svg width="850" height="400" version="1.1" xmlns="http://www.w3.org/2000/svg">
<line x1="19.5" y1="50" x2="24.5" y2="50" style="stroke:black;stroke-width:1"/><text x="26.5" y="55.5" text-anchor="left" font-family="black" font-size="11" fill="black" >0 Kb</text>
<line x1="19.5" y1="80" x2="22.75" y2="80" style="stroke:black;stroke-width:1"/><text x="26.5" y="85.5" text-anchor="left" font-family="black" font-size="11" fill="black" >5 Kb</text>
<line x1="19.5" y1="110" x2="22.75" y2="110" style="stroke:black;stroke-width:1"/><text x="26.5" y="115.5" text-anchor="left" font-family="black" font-size="11" fill="black" >10 Kb</text>
<line x1="19.5" y1="140" x2="22.75" y2="140" style="stroke:black;stroke-width:1"/><text x="26.5" y="145.5" text-anchor="left" font-family="black" font-size="11" fill="black" >15 Kb</text>
<line x1="19.5" y1="170" x2="22.75" y2="170" style="stroke:black;stroke-width:1"/><text x="26.5" y="175.5" text-anchor="left" font-family="black" font-size="11" fill="black" >20 Kb</text>
<line x1="19.5" y1="200" x2="25" y2="200" style="stroke:black;stroke-width:1"/><text x="26.5" y="205.5" text-anchor="left" font-family="black" font-size="11" fill="black" >25 Kb</text>
<line x1="19.5" y1="230" x2="22.75" y2="230" style="stroke:black;stroke-width:1"/><text x="26.5" y="235.5" text-anchor="left" font-family="black" font-size="11" fill="black" >30 Kb</text>
<line x1="19.5" y1="260" x2="22.75" y2="260" style="stroke:black;stroke-width:1"/><text x="26.5" y="265.5" text-anchor="left" font-family="black" font-size="11" fill="black" >35 Kb</text>
<line x1="19.5" y1="290" x2="22.75" y2="290" style="stroke:black;stroke-width:1"/><text x="26.5" y="295.5" text-anchor="left" font-family="black" font-size="11" fill="black" >40 Kb</text>
<line x1="19.5" y1="320" x2="22.75" y2="320" style="stroke:black;stroke-width:1"/><text x="26.5" y="325.5" text-anchor="left" font-family="black" font-size="11" fill="black" >45 Kb</text>
<line x1="19.5" y1="350" x2="25" y2="350" style="stroke:black;stroke-width:1"/><text x="26.5" y="355.5" text-anchor="left" font-family="black" font-size="11" fill="black" >50 Kb</text>
<line x1="20" y1="50" x2="20" y2="362" style="stroke:black;stroke-width:1"/><line x1="20" y1="362" x2="18.5" y2="356" style="stroke:black;stroke-width:1"/><line x1="20" y1="362" x2="21.5" y2="356" style="stroke:black;stroke-width:1"/>
<rect  width="270" height="400" x="40" y="0" style="stroke-width:1;stroke:none; fill:none;"/>
<text x="175" y="38" text-anchor="middle" font-family="Times" font-size="12" fill="black" >Chrom01</text>
<rect  width="10" height="300" x="170" y="50" rx="14" ry="14" style="stroke-width:1;stroke:black;fill:none;"/>
<line x1="170" y1="85" x2="180" y2="85" style="stroke:black;stroke-width:0.5"/>
<polyline points="170,85 165.5,85 159.5,90.5 155,90.5" style="fill:none;stroke:black;stroke-width:0.5"/>
<text x="154" y="94.9" text-anchor="end" font-family="Times" font-size="11"  fill="black">gsample1</text>
<line x1="170" y1="203" x2="180" y2="203" style="stroke:black;stroke-width:0.5"/>
<polyline points="170,203 165.5,203 159.5,203 155,203" style="fill:none;stroke:black;stroke-width:0.5"/>
<text x="154" y="207.4" text-anchor="end" font-family="Times" font-size="11"  fill="black">gsample3</text>
<line x1="170" y1="311" x2="180" y2="311" style="stroke:black;stroke-width:0.5"/>
<polyline points="170,311 165.5,311 159.5,311 155,311" style="fill:none;stroke:black;stroke-width:0.5"/>
<text x="154" y="315.4" text-anchor="end" font-family="Times" font-size="11"  fill="black">gsample5</text>
<line x1="170" y1="147" x2="180" y2="147" style="stroke:black;stroke-width:0.5"/>
<polyline points="180,147 184.5,147 190.5,152.5 195,152.5" style="fill:none;stroke:black;stroke-width:0.5"/>
<text x="196" y="156.9" text-anchor="start" font-family="Times" font-size="11"  fill="black">gsample2</text>
<line x1="170" y1="258" x2="180" y2="258" style="stroke:black;stroke-width:0.5"/>
<polyline points="180,258 184.5,258 190.5,258 195,258" style="fill:none;stroke:black;stroke-width:0.5"/>
<text x="196" y="262.4" text-anchor="start" font-family="Times" font-size="11"  fill="black">gsample4</text>
<rect  width="270" height="400" x="310" y="0" style="stroke-width:1;stroke:none; fill:none;"/>
<text x="445" y="38" text-anchor="middle" font-family="Times" font-size="12" fill="black" >Chrom02</text>
<rect  width="10" height="250" x="440" y="50" rx="14" ry="14" style="stroke-width:1;stroke:black;fill:none;"/>
<line x1="440" y1="78" x2="450" y2="78" style="stroke:black;stroke-width:0.5"/>
<polyline points="440,78 435.5,78 429.5,83.5 425,83.5" style="fill:none;stroke:black;stroke-width:0.5"/>
<text x="424" y="87.9" text-anchor="end" font-family="Times" font-size="11"  fill="black">gsample6</text>
<line x1="440" y1="161" x2="450" y2="161" style="stroke:black;stroke-width:0.5"/>
<polyline points="440,161 435.5,161 429.5,161 425,161" style="fill:none;stroke:black;stroke-width:0.5"/>
<text x="424" y="165.4" text-anchor="end" font-family="Times" font-size="11"  fill="black">gsample8</text>
<line x1="440" y1="258" x2="450" y2="258" style="stroke:black;stroke-width:0.5"/>
<polyline points="440,258 435.5,258 429.5,258 425,258" style="fill:none;stroke:black;stroke-width:0.5"/>
<text x="424" y="262.4" text-anchor="end" font-family="Times" font-size="11"  fill="black">gsample10</text>
<line x1="440" y1="117" x2="450" y2="117" style="stroke:black;stroke-width:0.5"/>
<polyline points="450,117 454.5,117 460.5,122.5 465,122.5" style="fill:none;stroke:black;stroke-width:0.5"/>
<text x="466" y="126.9" text-anchor="start" font-family="Times" font-size="11"  fill="black">gsample7</text>
<line x1="440" y1="206" x2="450" y2="206" style="stroke:black;stroke-width:0.5"/>
<polyline points="450,206 454.5,206 460.5,206 465,206" style="fill:none;stroke:black;stroke-width:0.5"/>
<text x="466" y="210.4" text-anchor="start" font-family="Times" font-size="11"  fill="black">gsample9</text>
</svg>